<?xml version="1.0" encoding="UTF-8"?>
<!DOCTYPE svg PUBLIC "-//W3C//DTD SVG 1.1//EN" "http://www.w3.org/Graphics/SVG/1.1/DTD/svg11.dtd">
<!-- Creator: CorelDRAW -->
<svg xmlns="http://www.w3.org/2000/svg" xml:space="preserve" width="79.053mm" height="57.1865mm" style="shape-rendering:geometricPrecision; text-rendering:geometricPrecision; image-rendering:optimizeQuality; fill-rule:evenodd; clip-rule:evenodd"
viewBox="0 0 86.7887 62.7825"
 xmlns:xlink="http://www.w3.org/1999/xlink">
 <defs>
  <style type="text/css">
   <![CDATA[
    .fil1 {fill:none}
    .fil0 {fill:#1F1A17}
    .fil2 {fill:#1F1A17;fill-rule:nonzero}
   ]]>
  </style>
 </defs>
 <g id="Layer_x0020_1">
  <metadata id="CorelCorpID_0Corel-Layer"/>
  <g id="_72756480">
   <path id="_70549888" class="fil0" d="M43.5383 9.04533c5.10305,0.446168 5.1867,8.92336 0,9.28587l0 -0.725023c0.474054,-0.195199 0.641367,-0.0836565 0.641367,-1.03176l0 -6.05116c0,-0.362512 -0.278855,-0.55771 -0.641367,-0.725023l0 -0.752909zm-0.474054 0l0 0.752909c-0.446168,0.0836565 -0.641367,0.641367 -0.641367,0.80868l0 5.88384c0,0.474054 0,0.920222 0.641367,1.11542l0 0.725023c-5.07516,-0.55771 -4.79631,-9.00702 0,-9.28587z"/>
   <path id="_70547888" class="fil0" d="M51.876 9.24053c5.21459,0.167313 5.21459,8.92336 0,8.92336l0 -0.836565c0.390397,-0.111542 0.752909,-0.111542 0.752909,-0.836565l0 -5.5771c0,-0.669252 -0.278855,-0.752909 -0.752909,-0.864451l0 -0.80868zm-0.446168 0l0 8.92336 -2.98375 0c-0.641367,0 -0.641367,-0.0836565 -0.641367,-0.390397 0,-0.446168 0.641367,-0.362512 0.641367,-0.725023l0 -6.52521c0,-0.725023 -0.641367,-0.362512 -0.641367,-0.920222 0,-0.195199 0.195199,-0.362512 0.641367,-0.362512l2.98375 0z"/>
   <path id="_70546488" class="fil0" d="M60.4927 13.2282c0.669252,-0.278855 0.752909,-0.641367 0.864451,-1.11542 0.0836565,-0.474054 0.725023,-0.474054 0.725023,0.0836565l0 2.98375c0,0.278855 -0.55771,0.362512 -0.641367,0 -0.0836565,-0.362512 -0.390397,-1.11542 -0.948107,-1.19908l0 -0.752909zm0 -3.90397l2.70489 0 0 2.39815c0,0.390397 -0.669252,0.390397 -0.752909,0 -0.167313,-0.725023 -0.725023,-1.56159 -1.95199,-1.67313l0 -0.725023zm0 8.0868c1.03176,0 1.86833,-1.03176 2.03564,-1.67313 0.111542,-0.55771 0.752909,-0.55771 0.752909,-0.0836565l0 2.5097 -2.78855 0 0 -0.752909zm-0.446168 -8.0868l0 8.83971 -2.78855 0c-0.55771,0 -0.752909,-0.0836565 -0.752909,-0.278855 0,-0.55771 0.669252,-0.362512 0.669252,-0.752909l0 -6.33001c0,-0.920222 -0.669252,-0.446168 -0.669252,-1.11542 0,-0.195199 0.195199,-0.362512 0.55771,-0.362512l2.98375 0z"/>
   <path id="_70544328" class="fil0" d="M68.3006 13.2282c0.641367,-0.278855 0.752909,-0.641367 0.836565,-1.11542 0.0836565,-0.474054 0.725023,-0.474054 0.725023,0.0836565l0 2.98375c0,0.278855 -0.55771,0.362512 -0.641367,0 -0.0836565,-0.362512 -0.362512,-1.11542 -0.920222,-1.19908l0 -0.752909zm0 -3.90397l2.67701 0 0 2.39815c0,0.390397 -0.641367,0.390397 -0.725023,0 -0.195199,-0.725023 -0.752909,-1.56159 -1.95199,-1.67313l0 -0.725023zm0 8.0868c1.00388,0 1.84044,-1.03176 2.03564,-1.67313 0.0836565,-0.55771 0.752909,-0.55771 0.752909,-0.0836565l0 2.5097 -2.78855 0 0 -0.752909zm-0.474054 -8.0868l0 8.83971 -2.78855 0c-0.55771,0 -0.725023,-0.0836565 -0.725023,-0.278855 0,-0.55771 0.641367,-0.362512 0.641367,-0.752909l0 -6.33001c0,-0.920222 -0.641367,-0.446168 -0.641367,-1.11542 0,-0.195199 0.167313,-0.362512 0.55771,-0.362512l2.95586 0z"/>
   <path id="_70542512" class="fil0" d="M77.949 17.0485l0 -7.72429 2.87221 0c0.446168,0 0.752909,0.0836565 0.752909,0.362512 0,0.362512 -0.669252,0.278855 -0.669252,0.752909l0 6.52521c0,0.641367 0.669252,0.25097 0.669252,0.80868 0,0.390397 -0.195199,0.390397 -0.752909,0.390397l-3.06741 0c-0.195199,0 -0.474054,-0.0836565 -0.474054,-0.390397 0,-0.446168 0.669252,-0.25097 0.669252,-0.725023zm-4.82419 -4.85208l0.725023 2.23084 0 1.86833c0,0.669252 0.390397,0.920222 0.669252,1.11542 0.55771,0.362512 0.0836565,0.752909 -0.474054,0.752909l-1.39428 0c-0.278855,0 -0.920222,-0.390397 -0.0836565,-0.836565 0.362512,-0.195199 0.55771,-0.669252 0.55771,-1.22696l0 -3.90397zm3.70877 0.752909l0.641367 -2.14718 0 2.34238 -1.47793 5.01939 -0.474054 0 -2.5097 -7.55697c-0.278855,-0.920222 -0.920222,-0.362512 -0.920222,-0.920222 0,-0.362512 0.278855,-0.362512 0.725023,-0.362512l2.81644 0 1.19908 3.62512z"/>
   <path id="_70541720" class="fil0" d="M83.1357 17.0485l0 -6.52521c0,-0.725023 -0.641367,-0.474054 -0.641367,-0.920222 0,-0.362512 0.278855,-0.362512 0.725023,-0.362512l2.78855 0c0.669252,0 0.752909,0.0836565 0.752909,0.362512 0,0.362512 -0.641367,0.278855 -0.641367,0.752909l0 6.60887c0,0.641367 0.641367,0.25097 0.641367,0.80868 0,0.390397 -0.195199,0.390397 -0.752909,0.390397l-3.06741 0c-0.167313,0 -0.446168,-0.0836565 -0.446168,-0.390397 0,-0.446168 0.641367,-0.25097 0.641367,-0.725023z"/>
   <path id="_70530408" class="fil0" d="M28.759 16.5187l0 -11.0427 3.51357 0c0.55771,0 0.920222,0.139428 0.920222,0.529825 0,0.55771 -0.80868,0.390397 -0.80868,1.05965l0 9.31376c0,0.948107 0.80868,0.390397 0.80868,1.19908 0,0.529825 -0.223084,0.529825 -0.920222,0.529825l-3.73666 0c-0.223084,0 -0.585596,-0.139428 -0.585596,-0.529825 0,-0.669252 0.80868,-0.390397 0.80868,-1.05965zm-5.88384 -6.91561l0.892336 3.17895 0 2.67701c0,0.920222 0.446168,1.31062 0.780794,1.58947 0.697138,0.529825 0.139428,1.05965 -0.55771,1.05965l-1.70102 0c-0.334626,0 -1.11542,-0.529825 -0.111542,-1.19908 0.446168,-0.25097 0.697138,-0.920222 0.697138,-1.7289l0 -5.5771zm4.51745 1.05965l0.80868 -3.03952 0 3.31838 -1.84044 7.16658 -0.55771 0 -3.06741 -10.7638c-0.334626,-1.3385 -1.11542,-0.529825 -1.11542,-1.3385 0,-0.529825 0.334626,-0.529825 0.892336,-0.529825l3.40203 0 1.47793 5.1867z"/>
   <path id="_70529480" class="fil1" d="M27.8666 21.064c-5.52133,0 -10.0667,-4.57322 -10.0667,-10.1224 0,-5.54922 4.54534,-10.0946 10.1224,-10.0946 5.54922,0 10.0946,4.54534 10.0946,10.0946 0,2.39815 -0.920222,4.79631 -2.45392,6.60887"/>
   <line id="_70528688" class="fil1" x1="32.6072" y1="17.6062" x2="35.3678" y2= "17.6062" />
   <path id="_70531440" class="fil1" d="M27.8945 21.064c58.8942,0 58.8942,0 58.8942,0"/>
   <path id="_71743808" class="fil2" d="M27.8945 20.5692l58.8942 0 0 0.989606 -58.8942 0 0 -0.000878284 -0.0278855 0.000878284 -0.000768498 0 0 -0.00197614c-2.89757,-0.000219571 -5.53802,-1.19941 -7.45312,-3.12548 -1.91411,-1.9252 -3.10517,-4.57838 -3.10561,-7.48814l-0.00197614 0 0 -0.00164678 0 -0.000768498 0.00197614 0c0.000219571,-2.91107 1.19216,-5.55844 3.11494,-7.47749 1.92147,-1.91773 4.57465,-3.10869 7.49868,-3.10912l0 -0.00197614 0.00164678 0 0.000768498 0 0 0.00197614c2.91206,0.000219571 5.55954,1.1915 7.47749,3.10956 1.91762,1.91784 3.10869,4.56466 3.10912,7.47617l0.00197614 0 0 0.00164678 0 0.00175657 -0.00197614 0c-0.000219571,1.25869 -0.241308,2.51628 -0.683085,3.69505 -0.0771792,0.205848 -0.154249,0.396655 -0.230769,0.570665l-0.000658713 -0.000329356c-0.424101,0.965014 -0.983897,1.86712 -1.65535,2.66065 -0.0887067,0.104735 -0.211996,0.163471 -0.338798,0.173351 -0.069604,0.0373271 -0.148759,0.0582961 -0.233294,0.0582961l-2.76067 0c-0.273256,0 -0.494803,-0.221547 -0.494803,-0.494803 0,-0.273256 0.221547,-0.494803 0.494803,-0.494803l2.67888 0c0.567042,-0.692966 1.04197,-1.47091 1.40547,-2.29858l0 -0.00186635c0.0808021,-0.183891 0.151284,-0.356144 0.211447,-0.51665 0.401705,-1.07195 0.621056,-2.21251 0.621166,-3.35098l-0.00197614 0 0 -0.00175657 0 -0.00164678 0.00197614 0c-0.000329356,-2.63584 -1.08183,-5.0352 -2.82302,-6.77662 -1.74142,-1.74153 -4.14155,-2.82335 -6.77794,-2.82346l0 0.00197614 -0.000768498 0 -0.00164678 0 0 -0.00197614c-2.6511,0.000329356 -5.05826,1.08183 -6.80286,2.82302 -1.74394,1.74043 -2.825,4.14034 -2.82511,6.77794l0.00197614 0 0 0.000768498 0 0.00164678 -0.00197614 0c0.000329356,2.6376 1.08172,5.04453 2.81951,6.79232 1.73746,1.74757 4.13024,2.83554 6.75356,2.83565l0 -0.00197614 0.000768498 0c0.00933176,0 0.0186635,0 0.0278855,0.000548927l0 -0.000548927z"/>
  </g>
  <g id="_71900208">
   <path id="_92868336" class="fil0" d="M0 37.7291c0.139428,-2.39815 2.1193,-3.06741 3.95974,-3.76454 -0.390397,-1.25485 0.585596,-1.89621 1.56159,-2.09141 -0.641367,-2.28661 -0.585596,-5.27036 -0.975993,-7.86371 -0.0836565,-2.06353 -0.669252,-3.95974 -0.390397,-5.9675 0.920222,-2.67701 1.81256,-5.40979 2.62124,-8.282 -0.195199,-0.641367 -1.39428,-1.08753 -1.00388,-1.75679 0.613481,-2.64912 1.25485,-5.32613 1.84044,-7.91948 0.223084,0 0.418283,0 0.529825,-0.0836565 3.34626,6.83195 6.44155,13.9985 9.53684,20.9699 0.446168,2.00776 1.31062,3.70877 2.03564,5.3819 2.81644,-1.08753 4.35014,4.15494 1.11542,4.29437 0.055771,0.501939 0.139428,0.975993 0.725023,0.697138 0.641367,0.139428 0.836565,0.725023 0.920222,1.50582 0.836565,-0.529825 1.58947,0.446168 2.23084,0.725023 1.17119,0.836565 1.45005,2.73278 1.25485,4.74054 -0.334626,0.585596 -1.05965,0.725023 -2.03564,0.725023 -0.223084,1.22696 -0.223084,2.64912 -1.84044,2.53758 -0.864451,1.22696 -1.05965,3.03952 -3.03952,3.12318 -0.25097,-0.139428 -0.585596,-0.585596 -0.641367,-0.0836565 -0.80868,0.585596 -1.11542,2.23084 -2.37027,1.89621 0.055771,-1.95199 0.975993,-3.12318 1.05965,-5.01939 0.697138,-0.975993 1.17119,-2.20296 2.09141,-2.92798 0.055771,-0.306741 -0.195199,-0.25097 -0.390397,-0.390397 -0.669252,-1.22696 -0.139428,-2.25873 1.36639,-2.20296 -0.195199,0.585596 -1.36639,0.780794 -0.780794,1.75679 1.11542,0.725023 1.78467,-0.725023 2.42604,-0.641367 0.529825,0.892336 3.03952,2.14718 3.62512,0.501939 0.195199,-2.73278 -1.31062,-3.70877 -2.95586,-4.68477 0.334626,1.56159 -0.669252,2.23084 -2.3145,2.03564 -0.390397,-0.195199 -0.641367,-0.585596 -0.836565,-1.05965 -1.31062,0 -2.5097,0.0836565 -3.73666,0.139428 0,0.390397 0.055771,0.780794 0,1.22696 0.306741,0.195199 1.17119,0.195199 1.11542,0.529825 -2.37027,-0.585596 -2.45392,2.73278 -1.39428,3.76454 0.725023,0.139428 1.39428,0.669252 2.09141,0.390397 0.0836565,0.669252 -0.780794,0.390397 -1.31062,0.585596 -1.95199,-0.055771 -2.87221,-1.42216 -2.62124,-3.51357 0.334626,-0.697138 0.669252,-1.42216 1.50582,-1.61736 0,-0.446168 0.0836565,-0.920222 0.0836565,-1.36639 -0.920222,-0.055771 -2.5097,0.334626 -2.23084,-0.725023 0.697138,0 1.42216,0 2.14718,-0.055771 -0.334626,-0.641367 -0.446168,-1.03176 0.669252,-0.920222 1.36639,-0.25097 1.84044,-1.47793 2.56547,-2.39815 1.11542,0.055771 2.28661,0.139428 3.01163,-0.334626 0.780794,-1.42216 0.0836565,-2.78855 -1.45005,-3.03952 0.0836565,0.390397 0.474054,0.780794 0.334626,1.17119 -2.23084,0.697138 -4.40591,1.42216 -6.69252,2.20296 0.195199,0.195199 0.725023,0.836565 0.055771,0.836565 -1.97987,-1.22696 -6.74829,-1.42216 -6.94349,1.64524 0.641367,0.836565 -0.474054,0.446168 -1.00388,0.25097 -0.864451,0.195199 -0.864451,1.17119 -0.446168,1.81256 -2.25873,0.334626 -3.95974,1.11542 -4.21071,3.40203 0.25097,1.28273 0.975993,2.53758 2.28661,2.45392 0.334626,0.195199 1.39428,0.585596 0.613481,0.864451 -0.195199,0.306741 -0.669252,0.390397 -0.669252,1.03176 1.05965,0.139428 0.725023,1.61736 1.50582,2.00776 0.529825,0.669252 -1.25485,0.585596 -1.11542,-0.055771 -0.139428,-0.585596 0.0836565,-1.42216 -0.864451,-1.22696 -0.641367,-0.278855 -0.390397,-1.56159 0.0836565,-1.75679 0.306741,-0.0836565 0.641367,-0.139428 0.975993,-0.278855 -2.28661,0 -3.01163,-1.56159 -3.68089,-3.17895zm15.5043 -4.68477c1.70102,-0.195199 2.56547,-1.22696 3.15106,-2.48181 0.669252,0.195199 1.89621,-0.111542 1.78467,0.780794 -0.529825,0.474054 -1.05965,0.864451 -1.11542,1.70102 -1.25485,0 -2.5097,0 -3.82031,0zm4.60111 0.780794c-0.111542,-1.11542 0.725023,-2.14718 1.58947,-1.56159 0.501939,1.36639 -0.613481,2.48181 -1.58947,1.56159zm-2.67701 10.5965c0.585596,-2.14718 1.03176,-4.48957 2.67701,-5.52133 -0.111542,-0.390397 0.334626,-0.25097 0.529825,-0.334626 0.390397,-0.195199 0.920222,-1.08753 1.25485,-0.390397 0.390397,0.278855 0.780794,0.529825 1.17119,0.725023 -0.111542,0.920222 -0.195199,2.34238 -1.31062,1.61736 -0.975993,0.920222 -1.25485,2.53758 -2.37027,3.40203 -0.390397,-1.84044 -1.36639,0 -1.95199,0.501939zm-11.3215 -29.0567c0.195199,-0.446168 0.418283,-0.892336 0.529825,-1.36639 0.139428,0.669252 0.669252,0.975993 0.920222,1.50582 -0.446168,-0.0836565 -0.920222,-0.139428 -1.45005,-0.139428zm0.669252 -2.00776c0.25097,-0.529825 0.055771,-1.61736 1.11542,-1.36639 -0.474054,0.390397 -0.725023,0.920222 -1.11542,1.36639zm6.97138 10.0946c0.697138,-0.195199 1.70102,-0.139428 2.09141,-0.585596 0.195199,-0.780794 0.390397,-1.56159 0.585596,-2.34238 0.529825,1.50582 1.11542,2.98375 1.64524,4.54534 -0.529825,0.529825 -1.00388,1.03176 -1.58947,1.61736 -0.195199,-0.780794 0.0836565,-2.00776 -0.446168,-2.45392 -0.780794,-0.278855 -1.64524,-0.390397 -2.28661,-0.780794zm-8.86759 -3.79243c0.055771,-1.47793 0.697138,-2.39815 1.03176,-3.62512 0.725023,-0.0836565 2.76067,0.697138 2.67701,-0.334626 -0.390397,-0.641367 -0.780794,-1.31062 -1.22696,-1.95199 0.529825,-0.780794 1.31062,-1.36639 1.64524,-2.34238 -0.529825,-0.055771 -1.00388,-0.139428 -1.58947,-0.139428 0.195199,-0.585596 0.390397,-1.17119 0.529825,-1.81256 -0.334626,-0.529825 -0.864451,-0.836565 -1.11542,-1.50582 0.390397,-1.81256 0.864451,-3.62512 1.25485,-5.46556 2.62124,5.60499 5.24248,11.21 7.80794,16.8707 -0.055771,1.22696 -0.390397,2.1193 -0.725023,3.17895 -0.864451,0.195199 -1.89621,0.111542 -2.67701,0.501939 -0.0836565,0.278855 0.055771,0.390397 0.195199,0.529825 0.975993,0.390397 1.95199,0.780794 2.95586,1.17119 0.111542,0.975993 0.055771,2.34238 0.195199,3.03952 0.725023,0.195199 0.836565,-0.585596 1.31062,-0.836565 0.390397,-0.446168 0.864451,-0.836565 1.17119,-1.28273 0.195199,0.501939 0.390397,1.03176 0.529825,1.47793 -2.37027,0.780794 -4.60111,1.22696 -6.88772,2.14718 -2.3145,-0.529825 -4.87996,-0.195199 -5.85596,1.31062 -0.25097,-3.79243 -0.725023,-7.27812 -1.22696,-10.9311z"/>
   <path id="_92868360" class="fil0" d="M4.93573 50.2776c-0.195199,-4.29437 0.334626,-7.86371 4.40591,-7.91948 3.01163,0.390397 4.12706,2.64912 4.79631,5.3819 -0.278855,1.05965 -0.474054,2.73278 -0.278855,3.8482 1.11542,-0.529825 1.7289,1.03176 2.17507,1.70102 0.334626,0.585596 0.195199,1.47793 -0.585596,1.03176 -0.390397,-0.920222 -0.669252,-1.89621 -1.70102,-2.09141 0.306741,-0.892336 -0.725023,-0.055771 -0.920222,-0.501939 -0.139428,-1.56159 0.111542,-2.92798 0.306741,-4.2386 -0.641367,-2.20296 -1.70102,-4.0434 -4.26648,-4.35014 -2.62124,0.25097 -2.76067,2.84432 -3.29049,5.1867 0.474054,3.31838 0.613481,6.58098 0.139428,10.0946 0.334626,2.09141 2.03564,2.78855 3.82031,3.4578 2.56547,0.306741 4.21071,-0.725023 5.71653,-1.70102 3.73666,-0.920222 7.36177,-1.95199 10.9032,-3.06741 -0.725023,-2.84432 -1.11542,-6.05116 -1.70102,-9.09068 -0.390397,-0.390397 -1.00388,0.390397 -1.45005,0.446168 -1.97987,1.70102 -4.15494,3.12318 -6.58098,4.29437 -0.25097,-0.139428 -0.641367,-0.195199 -0.446168,-0.641367 3.34626,-1.31062 5.43767,-3.90397 8.67239,-5.35402 0.501939,0.864451 1.31062,-0.055771 1.95199,-0.306741 0,-4.0434 1.58947,-6.58098 3.95974,-8.19834 1.56159,-3.01163 6.83195,-1.50582 10.485,-2.09141 1.3385,-0.139428 1.45005,1.95199 0.80868,2.73278 -0.669252,0.390397 -1.39428,0.725023 -2.23084,0.975993 1.22696,1.31062 0.920222,4.15494 -1.7289,3.2626 -0.390397,-0.195199 -0.697138,-0.390397 -1.11542,-0.585596 0.0836565,0.697138 0.613481,1.75679 -0.055771,2.20296 -0.780794,0 -1.78467,0.585596 -2.37027,0.195199 -0.334626,-0.529825 -0.725023,-0.920222 -1.03176,-1.50582 -0.80868,-0.195199 -0.529825,0.278855 -0.390397,0.725023 0.25097,2.48181 -1.00388,3.70877 -3.37415,3.37415 -0.195199,0.278855 -1.17119,0.669252 -0.334626,0.780794 0.390397,0.585596 1.14331,0.920222 1.25485,1.70102 -0.111542,1.17119 0.278855,2.87221 -0.25097,3.653 -0.25097,0 -0.390397,0 -0.613481,-0.0836565 -0.055771,-1.67313 0.278855,-3.70877 -0.836565,-4.40591 -0.055771,-0.278855 -0.139428,-0.529825 -0.25097,-0.780794 -1.00388,0.446168 -1.86833,0.975993 -2.64912,1.67313 0.390397,2.67701 0.864451,5.35402 1.25485,8.00314 -3.62512,0.864451 -7.22235,1.70102 -10.8475,2.62124 -2.23084,1.42216 -6.21847,3.17895 -9.06279,1.17119 -0.697138,-0.780794 -1.84044,-1.17119 -2.09141,-2.53758 -0.390397,-3.06741 0.446168,-6.19058 -0.195199,-9.06279zm20.3564 -2.14718c0,-0.055771 0.055771,-0.111542 0,-0.25097 0.669252,-0.25097 1.31062,-0.529825 1.97987,-0.780794 0.836565,-2.92798 0.836565,-6.69252 3.48569,-7.86371 0.725023,-1.17119 1.95199,-1.89621 3.59723,-2.09141 2.3145,0.055771 4.68477,0.25097 6.77618,0 0.725023,0.334626 0.446168,1.61736 -0.334626,1.61736 -0.529825,0.278855 -1.45005,0.0836565 -1.50582,0.780794 -0.920222,-1.61736 -3.48569,-1.61736 -5.5771,-2.14718 -0.278855,0.0836565 -0.390397,0.278855 -0.278855,0.585596 1.45005,0.529825 3.23472,0.725023 4.48957,1.45005 0.641367,0.975993 1.95199,1.22696 1.75679,2.98375 -1.45005,0.641367 -2.37027,-0.446168 -3.34626,-0.920222 -0.529825,-0.836565 -0.390397,-2.34238 -1.84044,-2.25873 -1.05965,0.25097 -2.23084,0.306741 -3.23472,0.697138 -0.195199,1.17119 2.17507,0.278855 2.64912,0.390397 0.334626,-0.25097 1.31062,-0.390397 1.05965,0.195199 0.697138,0.864451 0.920222,2.23084 1.22696,3.31838 -0.306741,0.529825 -1.50582,0.725023 -1.95199,0.0836565 -0.223084,-0.334626 -0.334626,-0.669252 -0.613481,-1.05965 -0.780794,0 -2.14718,-0.641367 -2.00776,0.669252 0.697138,0.780794 0.585596,2.53758 -0.278855,3.12318 -0.669252,0 -1.25485,0 -1.97987,0 -1.17119,0.892336 -2.34238,1.81256 -3.73666,2.59335 -0.139428,-0.390397 -0.055771,-0.920222 -0.334626,-1.11542z"/>
   <path id="_70756568" class="fil0" d="M6.44155 22.2805c0,-2.09141 0.725023,-4.09917 3.09529,-4.09917 0.306741,0.920222 -1.11542,1.03176 -0.920222,2.34238 -0.195199,2.06353 2.62124,1.42216 3.68089,1.17119 -0.278855,2.00776 -1.97987,2.73278 -4.40591,2.39815 -0.80868,-0.334626 -1.25485,-0.920222 -1.45005,-1.81256zm0.529825 -0.0836565c-0.055771,-1.56159 0.529825,-2.53758 1.39428,-3.17895 -0.80868,1.17119 -0.278855,3.17895 1.03176,3.42992 0.780794,0.139428 1.58947,0.195199 2.17507,-0.055771 -0.669252,1.22696 -4.26648,1.75679 -4.60111,-0.195199z"/>
   <path id="_70515408" class="fil0" d="M22.4757 42.4696c0.195199,-1.03176 1.70102,-0.446168 2.03564,0.0836565 0.25097,0.641367 0.446168,1.36639 1.25485,1.47793 0.390397,0.474054 1.36639,1.89621 -0.334626,1.56159 -0.195199,-0.111542 0,-0.585596 -0.278855,-0.697138 -0.501939,-0.195199 -0.975993,-0.474054 -0.892336,-1.36639 -0.278855,-0.669252 -1.19908,-0.669252 -1.78467,-1.05965z"/>
   <path id="_72951872" class="fil0" d="M36.4742 31.0366c-0.390397,-1.81256 1.89621,-1.95199 1.75679,-0.334626 -0.055771,0.585596 -1.31062,0.836565 -1.75679,0.334626zm0.585596 -0.334626c0,-1.11542 1.31062,0.055771 0,0z"/>
   <path id="_70510928" class="fil0" d="M36.781 33.4905c0.195199,-0.446168 -0.111542,-1.67313 0.613481,-1.42216 0,0.529825 0.306741,1.61736 -0.613481,1.42216z"/>
   <path id="_70508824" class="fil0" d="M37.4502 29.2798c0.055771,-0.641367 -0.585596,-2.14718 0.529825,-1.75679 -0.139428,0.641367 0.306741,1.86833 -0.529825,1.75679z"/>
   <path id="_70507832" class="fil0" d="M38.9003 31.1481c-0.334626,-0.641367 0.725023,-0.306741 1.11542,-0.446168 1.17119,0.390397 -0.334626,0.529825 -1.11542,0.446168z"/>
   <path id="_70506472" class="fil0" d="M40.1551 29.5865c-0.0836565,-0.780794 1.56159,0.0836565 1.61736,-0.641367 -0.25097,-0.446168 -0.836565,-0.585596 -0.780794,-1.42216 0.725023,0 0.585596,0.836565 1.25485,0.892336 0.055771,-0.501939 0.111542,-1.67313 0.585596,-1.28273 0,0.641367 0.055771,1.28273 0.055771,1.95199 0.529825,-0.334626 1.11542,-1.31062 1.78467,-1.11542 -0.055771,0.780794 -0.975993,0.725023 -1.17119,1.36639 0.697138,0 2.56547,-0.055771 1.61736,0.446168 -0.585596,0.0836565 -1.95199,-0.25097 -1.36639,0.474054 0.055771,0.306741 1.05965,0.892336 0.334626,1.03176 -0.529825,-0.25097 -0.669252,-0.920222 -1.3385,-1.17119 -0.111542,0.725023 0.278855,1.95199 -0.390397,2.28661 -0.25097,-0.390397 -0.111542,-1.17119 -0.195199,-1.84044 -0.501939,0.334626 -0.585596,1.05965 -1.36639,1.05965 0.139428,-0.920222 0.864451,-1.31062 1.25485,-1.89621 -0.669252,-0.055771 -1.50582,0.139428 -1.89621,-0.139428z"/>
   <path id="_70505448" class="fil0" d="M40.685 35.3867c0,-0.139428 0.055771,-0.25097 0.055771,-0.334626 0.780794,0.139428 2.48181,-0.306741 2.42604,0.529825 -0.780794,-0.055771 -1.84044,0.139428 -2.48181,-0.195199z"/>
   <path id="_72559400" class="fil0" d="M43.836 35.3309c-0.278855,-1.70102 2.87221,-1.81256 2.42604,0.055771 -0.278855,1.03176 -2.23084,1.17119 -2.42604,-0.055771zm0.697138 0.055771c-0.25097,-1.42216 2.03564,-0.641367 0.920222,0.195199 -0.334626,-0.055771 -0.780794,0 -0.920222,-0.195199z"/>
   <path id="_70502472" class="fil0" d="M44.812 39.0955c0.139428,-0.725023 -0.334626,-2.87221 0.529825,-2.20296 -0.195199,0.697138 0.501939,2.34238 -0.529825,2.20296z"/>
   <path id="_70501216" class="fil0" d="M45.063 33.379c0.055771,-0.780794 0.139428,-1.56159 0.195199,-2.39815 0.864451,0.25097 0.195199,1.67313 0.25097,2.45392 -0.111542,0 -0.25097,0 -0.446168,-0.055771z"/>
   <path id="_70499024" class="fil0" d="M45.9832 25.32c-0.25097,-0.780794 1.39428,-0.055771 0.864451,-0.641367 -0.529825,-0.334626 -0.390397,-1.22696 0.139428,-0.529825 0.25097,0.195199 0.306741,0.669252 0.725023,0.669252 -0.334626,-1.25485 0.836565,-1.64524 0.585596,-0.195199 0.195199,-0.529825 1.45005,-0.669252 0.780794,0 -0.474054,0.306741 -0.334626,0.446168 0.334626,0.446168 0.920222,0.641367 -0.864451,0.195199 -1.00388,0.585596 0.195199,0.306741 1.25485,0.836565 0.390397,0.948107 -0.306741,-0.111542 -0.836565,-0.892336 -0.697138,0.0836565 -0.725023,0.390397 -0.334626,-0.474054 -0.725023,-0.585596 -0.278855,0.446168 -1.19908,0.501939 -0.585596,-0.0836565 0.390397,-0.167313 0.920222,-0.80868 -0.0836565,-0.55771 -0.25097,-0.0836565 -0.446168,-0.139428 -0.725023,-0.139428z"/>
   <path id="_70498032" class="fil0" d="M33.5742 30.3394c0.306741,-0.25097 2.53758,-0.25097 2.09141,0.334626 -0.669252,-0.139428 -1.78467,0.195199 -2.09141,-0.334626z"/>
   <polygon id="_70497040" class="fil0" points="44.8678,48.4371 45.8438,45.7322 46.6246,45.7322 45.7601,48.0746 47.8236,48.7439 47.5169,49.441 "/>
   <line id="_70496056" class="fil1" x1="39.5417" y1="60.8741" x2="82.7921" y2= "58.1692" />
   <line id="_70495104" class="fil1" x1="51.3372" y1="26.8537" x2="62.352" y2= "26.8537" />
   <line id="_70494152" class="fil1" x1="39.5138" y1="58.3365" x2="52.3411" y2= "53.2613" />
   <line id="_70493200" class="fil1" x1="51.7276" y1="60.0933" x2="52.369" y2= "53.2613" />
   <line id="_70430688" class="fil1" x1="39.5417" y1="60.8741" x2="39.5417" y2= "58.3365" />
   <line id="_70429856" class="fil1" x1="82.9315" y1="58.0297" x2="85.6085" y2= "48.0467" />
   <line id="_70428768" class="fil1" x1="54.3767" y1="48.0467" x2="85.6364" y2= "48.0467" />
   <line id="_70427816" class="fil1" x1="52.3411" y1="53.2613" x2="62.352" y2= "26.8537" />
   <line id="_70426864" class="fil1" x1="85.6085" y1="48.0467" x2="82.0392" y2= "35.5261" />
   <line id="_70425912" class="fil1" x1="62.352" y1="26.8537" x2="82.0392" y2= "35.554" />
   <line id="_70424960" class="fil1" x1="32.6818" y1="56.2451" x2="32.6818" y2= "53.7075" />
   <line id="_70424008" class="fil1" x1="43.2783" y1="49.3295" x2="47.9073" y2= "36.3906" />
   <line id="_70423056" class="fil1" x1="43.2783" y1="49.3295" x2="52.369" y2= "53.2613" />
   <line id="_70422072" class="fil1" x1="32.6818" y1="53.7075" x2="43.2783" y2= "49.3295" />
   <line id="_70421120" class="fil1" x1="32.6539" y1="56.2172" x2="39.5138" y2= "60.8462" />
   <line id="_70420168" class="fil1" x1="59.9817" y1="28.3596" x2="53.9585" y2= "44.6168" />
   <line id="_70419080" class="fil1" x1="49.441" y1="36.5858" x2="47.3775" y2= "42.5533" />
   <line id="_70418096" class="fil1" x1="50.1103" y1="34.6059" x2="52.4526" y2= "28.3596" />
   <line id="_70417144" class="fil1" x1="52.4805" y1="28.3596" x2="59.9817" y2= "28.3596" />
   <line id="_70416192" class="fil1" x1="51.3372" y1="26.8537" x2="48.5487" y2= "34.5501" />
   <path id="_72105968" class="fil2" d="M42.8414 48.9159l4.54677 -12.7205 1.13848 0 -4.55774 12.8351 8.06583 3.48865 9.52071 -25.1145 -9.83414 0 -2.71214 7.45092 -1.17273 0 2.96893 -8.14641c0.0635658,-0.233953 0.277867,-0.406316 0.531911,-0.406316l11.0148 0c0.0871697,0 0.169399,0.0206397 0.242736,0.0566493l19.5047 8.61959c0.215619,0.0239332 0.406096,0.174888 0.469113,0.396435l3.52455 12.3636c0.0593939,0.0878284 0.0941959,0.193662 0.0941959,0.307619 0,0.111213 -0.033265,0.21496 -0.0900241,0.301581l-2.63419 9.82349c-0.0351313,0.131743 -0.115604,0.239113 -0.2199,0.310803 -0.0929883,0.133609 -0.243834,0.22495 -0.418832,0.23527l-43.2504 2.70489c-0.155456,0.00911219 -0.299495,-0.0476469 -0.405438,-0.145685l-6.72601 -4.53864c-0.054234,-0.0264583 -0.103747,-0.0613701 -0.146234,-0.103308 -0.172802,-0.147552 -0.234721,-0.385347 -0.163141,-0.595476l0 -2.31999c-0.00131743,-0.0600526 0.00735563,-0.119337 0.0248115,-0.175547l0.00373271 -0.0115275 0.000548927 -0.00131743c0.0490741,-0.145136 0.157981,-0.268865 0.310912,-0.331662l10.3682 -4.28372zm-9.61084 5.15893l0 1.86756 5.76242 3.88838 0 -1.31622c-0.0947449,-0.276659 0.0436946,-0.581753 0.318488,-0.690221l11.6075 -4.59255 -7.6448 -3.30652 -10.0436 4.14956zm6.85983 4.6257l0 1.58849 11.133 -0.696259 0.516431 -5.50135 -11.6494 4.60912zm12.2421 0.822842l30.1342 -1.88458 2.42439 -9.04116 -30.1943 0 -1.78006 4.69585 -0.00109785 0.0173461 -0.58318 6.21254zm2.78207 -12.0275l29.7646 0 -3.2895 -11.5389 -18.9295 -8.36543 -7.54555 19.9043z"/>
   <line id="_70415256" class="fil1" x1="53.9306" y1="44.5889" x2="47.3775" y2= "42.5812" />
   <path id="_70803440" class="fil2" d="M60.4874 28.5781l-6.01251 16.228c-0.104516,0.285113 -0.420698,0.431567 -0.705811,0.327051 -0.0376564,-0.013833 -0.072678,-0.0315084 -0.105284,-0.0521481l-6.44561 -1.97482c-0.289943,-0.0879382 -0.453743,-0.394459 -0.365805,-0.684403 0.0253604,-0.0837663 0.0694942,-0.157213 0.125704,-0.216936l-0.0429261 -0.014821 2.05573 -5.99473 1.16043 0 -2.06781 6.02821 5.54559 1.69904 5.56195 -15.0122 -6.35833 0 -2.22206 5.9451 -1.18272 0 2.51035 -6.68758 0.0227256 0.00845348c0.0754226,-0.214301 0.279404,-0.367781 0.519505,-0.367781l7.5012 0c0.304216,0 0.550903,0.246688 0.550903,0.550903 0,0.0777281 -0.0162482,0.151614 -0.0452316,0.218583z"/>
   <path id="_70413712" class="fil0" d="M47.015 35.6377c-0.139428,-0.0278855 -0.111542,-0.334626 0.306741,-0.418283 0.362512,-0.0836565 2.03564,-0.0278855 2.81644,0.0278855 0.752909,0.0836565 0.446168,0.278855 0.223084,0.334626 -0.780794,0.25097 -2.59335,0.25097 -3.34626,0.055771z"/>
   <polygon id="_70408384" class="fil0" points="48.8554,49.9987 49.8314,47.2938 50.6401,47.2938 49.7477,49.6362 51.8113,50.3055 51.5045,51.0026 "/>
  </g>
 </g>
</svg>
