<?xml version="1.0" encoding="UTF-8"?>
<!DOCTYPE svg PUBLIC "-//W3C//DTD SVG 1.1//EN" "http://www.w3.org/Graphics/SVG/1.1/DTD/svg11.dtd">
<!-- Creator: CorelDRAW -->
<svg xmlns="http://www.w3.org/2000/svg" xml:space="preserve" width="78.5052mm" height="57.1865mm" style="shape-rendering:geometricPrecision; text-rendering:geometricPrecision; image-rendering:optimizeQuality; fill-rule:evenodd; clip-rule:evenodd"
viewBox="0 0 85.5901 62.3474"
 xmlns:xlink="http://www.w3.org/1999/xlink">
 <defs>
  <style type="text/css">
   <![CDATA[
    .fil1 {fill:none}
    .fil0 {fill:#1F1A17}
    .fil2 {fill:#1F1A17;fill-rule:nonzero}
   ]]>
  </style>
 </defs>
 <g id="Layer_x0020_1">
  <metadata id="CorelCorpID_0Corel-Layer"/>
  <g id="_71900208">
   <path id="_92868336" class="fil0" d="M0 37.4676c0.138461,-2.38154 2.10461,-3.04615 3.9323,-3.73846 -0.387692,-1.24615 0.581538,-1.88307 1.55077,-2.07692 -0.636922,-2.27077 -0.581538,-5.23384 -0.96923,-7.80922 -0.0830768,-2.04923 -0.664615,-3.9323 -0.387692,-5.92615 0.913845,-2.65846 1.8,-5.3723 2.60307,-8.22461 -0.193846,-0.636922 -1.38461,-1.08 -0.996922,-1.74461 0.60923,-2.63077 1.24615,-5.28922 1.82769,-7.86461 0.221538,0 0.415384,0 0.526153,-0.0830768 3.32307,6.78461 6.39692,13.9015 9.47076,20.8246 0.443076,1.99384 1.30154,3.68307 2.02154,5.34461 2.79692,-1.08 4.31999,4.12615 1.10769,4.26461 0.0553845,0.498461 0.138461,0.96923 0.719999,0.692307 0.636922,0.138461 0.830768,0.719999 0.913845,1.49538 0.830768,-0.526153 1.57846,0.443076 2.21538,0.719999 1.16308,0.830768 1.44,2.71384 1.24615,4.70769 -0.332307,0.581538 -1.05231,0.719999 -2.02154,0.719999 -0.221538,1.21846 -0.221538,2.63077 -1.82769,2.52 -0.858461,1.21846 -1.05231,3.01846 -3.01846,3.10153 -0.24923,-0.138461 -0.581538,-0.581538 -0.636922,-0.0830768 -0.803076,0.581538 -1.10769,2.21538 -2.35384,1.88307 0.0553845,-1.93846 0.96923,-3.10153 1.05231,-4.98461 0.692307,-0.96923 1.16308,-2.18769 2.07692,-2.90769 0.0553845,-0.304615 -0.193846,-0.24923 -0.387692,-0.387692 -0.664615,-1.21846 -0.138461,-2.24307 1.35692,-2.18769 -0.193846,0.581538 -1.35692,0.775384 -0.775384,1.74461 1.10769,0.719999 1.77231,-0.719999 2.40923,-0.636922 0.526153,0.886153 3.01846,2.13231 3.6,0.498461 0.193846,-2.71384 -1.30154,-3.68307 -2.93538,-4.6523 0.332307,1.55077 -0.664615,2.21538 -2.29846,2.02154 -0.387692,-0.193846 -0.636922,-0.581538 -0.830768,-1.05231 -1.30154,0 -2.4923,0.0830768 -3.71076,0.138461 0,0.387692 0.0553845,0.775384 0,1.21846 0.304615,0.193846 1.16308,0.193846 1.10769,0.526153 -2.35384,-0.581538 -2.43692,2.71384 -1.38461,3.73846 0.719999,0.138461 1.38461,0.664615 2.07692,0.387692 0.0830768,0.664615 -0.775384,0.387692 -1.30154,0.581538 -1.93846,-0.0553845 -2.8523,-1.41231 -2.60307,-3.48923 0.332307,-0.692307 0.664615,-1.41231 1.49538,-1.60615 0,-0.443076 0.0830768,-0.913845 0.0830768,-1.35692 -0.913845,-0.0553845 -2.4923,0.332307 -2.21538,-0.719999 0.692307,0 1.41231,0 2.13231,-0.0553845 -0.332307,-0.636922 -0.443076,-1.02461 0.664615,-0.913845 1.35692,-0.24923 1.82769,-1.46769 2.54769,-2.38154 1.10769,0.0553845 2.27077,0.138461 2.99077,-0.332307 0.775384,-1.41231 0.0830768,-2.76923 -1.44,-3.01846 0.0830768,0.387692 0.470769,0.775384 0.332307,1.16308 -2.21538,0.692307 -4.37538,1.41231 -6.64615,2.18769 0.193846,0.193846 0.719999,0.830768 0.0553845,0.830768 -1.96615,-1.21846 -6.70153,-1.41231 -6.89538,1.63384 0.636922,0.830768 -0.470769,0.443076 -0.996922,0.24923 -0.858461,0.193846 -0.858461,1.16308 -0.443076,1.8 -2.24307,0.332307 -3.9323,1.10769 -4.18153,3.37846 0.24923,1.27384 0.96923,2.52 2.27077,2.43692 0.332307,0.193846 1.38461,0.581538 0.60923,0.858461 -0.193846,0.304615 -0.664615,0.387692 -0.664615,1.02461 1.05231,0.138461 0.719999,1.60615 1.49538,1.99384 0.526153,0.664615 -1.24615,0.581538 -1.10769,-0.0553845 -0.138461,-0.581538 0.0830768,-1.41231 -0.858461,-1.21846 -0.636922,-0.276923 -0.387692,-1.55077 0.0830768,-1.74461 0.304615,-0.0830768 0.636922,-0.138461 0.96923,-0.276923 -2.27077,0 -2.99077,-1.55077 -3.65538,-3.15692zm15.3969 -4.6523c1.68923,-0.193846 2.54769,-1.21846 3.12923,-2.46461 0.664615,0.193846 1.88307,-0.110769 1.77231,0.775384 -0.526153,0.470769 -1.05231,0.858461 -1.10769,1.68923 -1.24615,0 -2.4923,0 -3.79384,0zm4.56923 0.775384c-0.110769,-1.10769 0.719999,-2.13231 1.57846,-1.55077 0.498461,1.35692 -0.60923,2.46461 -1.57846,1.55077zm-2.65846 10.5231c0.581538,-2.13231 1.02461,-4.45846 2.65846,-5.48307 -0.110769,-0.387692 0.332307,-0.24923 0.526153,-0.332307 0.387692,-0.193846 0.913845,-1.08 1.24615,-0.387692 0.387692,0.276923 0.775384,0.526153 1.16308,0.719999 -0.110769,0.913845 -0.193846,2.32615 -1.30154,1.60615 -0.96923,0.913845 -1.24615,2.52 -2.35384,3.37846 -0.387692,-1.82769 -1.35692,0 -1.93846,0.498461zm-11.2431 -28.8554c0.193846,-0.443076 0.415384,-0.886153 0.526153,-1.35692 0.138461,0.664615 0.664615,0.96923 0.913845,1.49538 -0.443076,-0.0830768 -0.913845,-0.138461 -1.44,-0.138461zm0.664615 -1.99384c0.24923,-0.526153 0.0553845,-1.60615 1.10769,-1.35692 -0.470769,0.387692 -0.719999,0.913845 -1.10769,1.35692zm6.92307 10.0246c0.692307,-0.193846 1.68923,-0.138461 2.07692,-0.581538 0.193846,-0.775384 0.387692,-1.55077 0.581538,-2.32615 0.526153,1.49538 1.10769,2.96307 1.63384,4.51384 -0.526153,0.526153 -0.996922,1.02461 -1.57846,1.60615 -0.193846,-0.775384 0.0830768,-1.99384 -0.443076,-2.43692 -0.775384,-0.276923 -1.63384,-0.387692 -2.27077,-0.775384zm-8.80614 -3.76615c0.0553845,-1.46769 0.692307,-2.38154 1.02461,-3.6 0.719999,-0.0830768 2.74154,0.692307 2.65846,-0.332307 -0.387692,-0.636922 -0.775384,-1.30154 -1.21846,-1.93846 0.526153,-0.775384 1.30154,-1.35692 1.63384,-2.32615 -0.526153,-0.0553845 -0.996922,-0.138461 -1.57846,-0.138461 0.193846,-0.581538 0.387692,-1.16308 0.526153,-1.8 -0.332307,-0.526153 -0.858461,-0.830768 -1.10769,-1.49538 0.387692,-1.8 0.858461,-3.6 1.24615,-5.42769 2.60307,5.56615 5.20615,11.1323 7.75384,16.7538 -0.0553845,1.21846 -0.387692,2.10461 -0.719999,3.15692 -0.858461,0.193846 -1.88307,0.110769 -2.65846,0.498461 -0.0830768,0.276923 0.0553845,0.387692 0.193846,0.526153 0.96923,0.387692 1.93846,0.775384 2.93538,1.16308 0.110769,0.96923 0.0553845,2.32615 0.193846,3.01846 0.719999,0.193846 0.830768,-0.581538 1.30154,-0.830768 0.387692,-0.443076 0.858461,-0.830768 1.16308,-1.27384 0.193846,0.498461 0.387692,1.02461 0.526153,1.46769 -2.35384,0.775384 -4.56923,1.21846 -6.83999,2.13231 -2.29846,-0.526153 -4.84615,-0.193846 -5.81538,1.30154 -0.24923,-3.76615 -0.719999,-7.22768 -1.21846,-10.8554z"/>
   <path id="_92868360" class="fil0" d="M4.90153 49.9292c-0.193846,-4.26461 0.332307,-7.80922 4.37538,-7.86461 2.99077,0.387692 4.09846,2.63077 4.76307,5.34461 -0.276923,1.05231 -0.470769,2.71384 -0.276923,3.82153 1.10769,-0.526153 1.71692,1.02461 2.16,1.68923 0.332307,0.581538 0.193846,1.46769 -0.581538,1.02461 -0.387692,-0.913845 -0.664615,-1.88307 -1.68923,-2.07692 0.304615,-0.886153 -0.719999,-0.0553845 -0.913845,-0.498461 -0.138461,-1.55077 0.110769,-2.90769 0.304615,-4.20923 -0.636922,-2.18769 -1.68923,-4.01538 -4.23692,-4.31999 -2.60307,0.24923 -2.74154,2.82461 -3.26769,5.15076 0.470769,3.29538 0.60923,6.53538 0.138461,10.0246 0.332307,2.07692 2.02154,2.76923 3.79384,3.43384 2.54769,0.304615 4.18153,-0.719999 5.67692,-1.68923 3.71076,-0.913845 7.31076,-1.93846 10.8277,-3.04615 -0.719999,-2.82461 -1.10769,-6.00922 -1.68923,-9.02768 -0.387692,-0.387692 -0.996922,0.387692 -1.44,0.443076 -1.96615,1.68923 -4.12615,3.10153 -6.53538,4.26461 -0.24923,-0.138461 -0.636922,-0.193846 -0.443076,-0.636922 3.32307,-1.30154 5.39999,-3.87692 8.6123,-5.31692 0.498461,0.858461 1.30154,-0.0553845 1.93846,-0.304615 0,-4.01538 1.57846,-6.53538 3.9323,-8.14153 1.55077,-2.99077 6.78461,-1.49538 10.4123,-2.07692 1.32923,-0.138461 1.44,1.93846 0.803076,2.71384 -0.664615,0.387692 -1.38461,0.719999 -2.21538,0.96923 1.21846,1.30154 0.913845,4.12615 -1.71692,3.24 -0.387692,-0.193846 -0.692307,-0.387692 -1.10769,-0.581538 0.0830768,0.692307 0.60923,1.74461 -0.0553845,2.18769 -0.775384,0 -1.77231,0.581538 -2.35384,0.193846 -0.332307,-0.526153 -0.719999,-0.913845 -1.02461,-1.49538 -0.803076,-0.193846 -0.526153,0.276923 -0.387692,0.719999 0.24923,2.46461 -0.996922,3.68307 -3.35077,3.35077 -0.193846,0.276923 -1.16308,0.664615 -0.332307,0.775384 0.387692,0.581538 1.13538,0.913845 1.24615,1.68923 -0.110769,1.16308 0.276923,2.8523 -0.24923,3.62769 -0.24923,0 -0.387692,0 -0.60923,-0.0830768 -0.0553845,-1.66154 0.276923,-3.68307 -0.830768,-4.37538 -0.0553845,-0.276923 -0.138461,-0.526153 -0.24923,-0.775384 -0.996922,0.443076 -1.85538,0.96923 -2.63077,1.66154 0.387692,2.65846 0.858461,5.31692 1.24615,7.94768 -3.6,0.858461 -7.1723,1.68923 -10.7723,2.60307 -2.21538,1.41231 -6.17538,3.15692 -8.99999,1.16308 -0.692307,-0.775384 -1.82769,-1.16308 -2.07692,-2.52 -0.387692,-3.04615 0.443076,-6.14768 -0.193846,-8.99999zm20.2154 -2.13231c0,-0.0553845 0.0553845,-0.110769 0,-0.24923 0.664615,-0.24923 1.30154,-0.526153 1.96615,-0.775384 0.830768,-2.90769 0.830768,-6.64615 3.46153,-7.80922 0.719999,-1.16308 1.93846,-1.88307 3.5723,-2.07692 2.29846,0.0553845 4.6523,0.24923 6.72922,0 0.719999,0.332307 0.443076,1.60615 -0.332307,1.60615 -0.526153,0.276923 -1.44,0.0830768 -1.49538,0.775384 -0.913845,-1.60615 -3.46153,-1.60615 -5.53845,-2.13231 -0.276923,0.0830768 -0.387692,0.276923 -0.276923,0.581538 1.44,0.526153 3.2123,0.719999 4.45846,1.44 0.636922,0.96923 1.93846,1.21846 1.74461,2.96307 -1.44,0.636922 -2.35384,-0.443076 -3.32307,-0.913845 -0.526153,-0.830768 -0.387692,-2.32615 -1.82769,-2.24307 -1.05231,0.24923 -2.21538,0.304615 -3.2123,0.692307 -0.193846,1.16308 2.16,0.276923 2.63077,0.387692 0.332307,-0.24923 1.30154,-0.387692 1.05231,0.193846 0.692307,0.858461 0.913845,2.21538 1.21846,3.29538 -0.304615,0.526153 -1.49538,0.719999 -1.93846,0.0830768 -0.221538,-0.332307 -0.332307,-0.664615 -0.60923,-1.05231 -0.775384,0 -2.13231,-0.636922 -1.99384,0.664615 0.692307,0.775384 0.581538,2.52 -0.276923,3.10153 -0.664615,0 -1.24615,0 -1.96615,0 -1.16308,0.886153 -2.32615,1.8 -3.71076,2.57538 -0.138461,-0.387692 -0.0553845,-0.913845 -0.332307,-1.10769z"/>
   <path id="_70756568" class="fil0" d="M6.39692 22.1261c0,-2.07692 0.719999,-4.07076 3.07384,-4.07076 0.304615,0.913845 -1.10769,1.02461 -0.913845,2.32615 -0.193846,2.04923 2.60307,1.41231 3.65538,1.16308 -0.276923,1.99384 -1.96615,2.71384 -4.37538,2.38154 -0.803076,-0.332307 -1.24615,-0.913845 -1.44,-1.8zm0.526153 -0.0830768c-0.0553845,-1.55077 0.526153,-2.52 1.38461,-3.15692 -0.803076,1.16308 -0.276923,3.15692 1.02461,3.40615 0.775384,0.138461 1.57846,0.193846 2.16,-0.0553845 -0.664615,1.21846 -4.23692,1.74461 -4.56923,-0.193846z"/>
   <path id="_70515408" class="fil0" d="M22.32 42.1753c0.193846,-1.02461 1.68923,-0.443076 2.02154,0.0830768 0.24923,0.636922 0.443076,1.35692 1.24615,1.46769 0.387692,0.470769 1.35692,1.88307 -0.332307,1.55077 -0.193846,-0.110769 0,-0.581538 -0.276923,-0.692307 -0.498461,-0.193846 -0.96923,-0.470769 -0.886153,-1.35692 -0.276923,-0.664615 -1.19077,-0.664615 -1.77231,-1.05231z"/>
   <path id="_72951872" class="fil0" d="M36.2215 30.8215c-0.387692,-1.8 1.88307,-1.93846 1.74461,-0.332307 -0.0553845,0.581538 -1.30154,0.830768 -1.74461,0.332307zm0.581538 -0.332307c0,-1.10769 1.30154,0.0553845 0,0z"/>
   <path id="_70510928" class="fil0" d="M36.5261 33.2584c0.193846,-0.443076 -0.110769,-1.66154 0.60923,-1.41231 0,0.526153 0.304615,1.60615 -0.60923,1.41231z"/>
   <path id="_70508824" class="fil0" d="M37.1907 29.0769c0.0553845,-0.636922 -0.581538,-2.13231 0.526153,-1.74461 -0.138461,0.636922 0.304615,1.85538 -0.526153,1.74461z"/>
   <path id="_70507832" class="fil0" d="M38.6307 30.9323c-0.332307,-0.636922 0.719999,-0.304615 1.10769,-0.443076 1.16308,0.387692 -0.332307,0.526153 -1.10769,0.443076z"/>
   <path id="_70506472" class="fil0" d="M39.8769 29.3815c-0.0830768,-0.775384 1.55077,0.0830768 1.60615,-0.636922 -0.24923,-0.443076 -0.830768,-0.581538 -0.775384,-1.41231 0.719999,0 0.581538,0.830768 1.24615,0.886153 0.0553845,-0.498461 0.110769,-1.66154 0.581538,-1.27384 0,0.636922 0.0553845,1.27384 0.0553845,1.93846 0.526153,-0.332307 1.10769,-1.30154 1.77231,-1.10769 -0.0553845,0.775384 -0.96923,0.719999 -1.16308,1.35692 0.692307,0 2.54769,-0.0553845 1.60615,0.443076 -0.581538,0.0830768 -1.93846,-0.24923 -1.35692,0.470769 0.0553845,0.304615 1.05231,0.886153 0.332307,1.02461 -0.526153,-0.24923 -0.664615,-0.913845 -1.32923,-1.16308 -0.110769,0.719999 0.276923,1.93846 -0.387692,2.27077 -0.24923,-0.387692 -0.110769,-1.16308 -0.193846,-1.82769 -0.498461,0.332307 -0.581538,1.05231 -1.35692,1.05231 0.138461,-0.913845 0.858461,-1.30154 1.24615,-1.88307 -0.664615,-0.0553845 -1.49538,0.138461 -1.88307,-0.138461z"/>
   <path id="_70505448" class="fil0" d="M40.403 35.1415c0,-0.138461 0.0553845,-0.24923 0.0553845,-0.332307 0.775384,0.138461 2.46461,-0.304615 2.40923,0.526153 -0.775384,-0.0553845 -1.82769,0.138461 -2.46461,-0.193846z"/>
   <path id="_72559400" class="fil0" d="M43.5323 35.0861c-0.276923,-1.68923 2.8523,-1.8 2.40923,0.0553845 -0.276923,1.02461 -2.21538,1.16308 -2.40923,-0.0553845zm0.692307 0.0553845c-0.24923,-1.41231 2.02154,-0.636922 0.913845,0.193846 -0.332307,-0.0553845 -0.775384,0 -0.913845,-0.193846z"/>
   <path id="_70502472" class="fil0" d="M44.5015 38.8246c0.138461,-0.719999 -0.332307,-2.8523 0.526153,-2.18769 -0.193846,0.692307 0.498461,2.32615 -0.526153,2.18769z"/>
   <path id="_70501216" class="fil0" d="M44.7507 33.1477c0.0553845,-0.775384 0.138461,-1.55077 0.193846,-2.38154 0.858461,0.24923 0.193846,1.66154 0.24923,2.43692 -0.110769,0 -0.24923,0 -0.443076,-0.0553845z"/>
   <path id="_70499024" class="fil0" d="M45.6646 25.1446c-0.24923,-0.775384 1.38461,-0.0553845 0.858461,-0.636922 -0.526153,-0.332307 -0.387692,-1.21846 0.138461,-0.526153 0.24923,0.193846 0.304615,0.664615 0.719999,0.664615 -0.332307,-1.24615 0.830768,-1.63384 0.581538,-0.193846 0.193846,-0.526153 1.44,-0.664615 0.775384,0 -0.470769,0.304615 -0.332307,0.443076 0.332307,0.443076 0.913845,0.636922 -0.858461,0.193846 -0.996922,0.581538 0.193846,0.304615 1.24615,0.830768 0.387692,0.941537 -0.304615,-0.110769 -0.830768,-0.886153 -0.692307,0.0830768 -0.719999,0.387692 -0.332307,-0.470769 -0.719999,-0.581538 -0.276923,0.443076 -1.19077,0.498461 -0.581538,-0.0830768 0.387692,-0.166154 0.913845,-0.803076 -0.0830768,-0.553845 -0.24923,-0.0830768 -0.443076,-0.138461 -0.719999,-0.138461z"/>
   <path id="_70498032" class="fil0" d="M33.3415 30.1292c0.304615,-0.24923 2.52,-0.24923 2.07692,0.332307 -0.664615,-0.138461 -1.77231,0.193846 -2.07692,-0.332307z"/>
   <polygon id="_70497040" class="fil0" points="44.5569,48.1015 45.5261,45.4153 46.3015,45.4153 45.443,47.7415 47.4923,48.4061 47.1876,49.0984 "/>
   <line id="_70496056" class="fil1" x1="39.2676" y1="60.4522" x2="82.2184" y2= "57.7661" />
   <line id="_70495104" class="fil1" x1="50.9815" y1="26.6677" x2="61.9199" y2= "26.6677" />
   <line id="_70494152" class="fil1" x1="39.24" y1="57.9322" x2="51.9784" y2= "52.8922" />
   <line id="_70493200" class="fil1" x1="51.3692" y1="59.6769" x2="52.0061" y2= "52.8922" />
   <line id="_70430688" class="fil1" x1="39.2676" y1="60.4522" x2="39.2676" y2= "57.9322" />
   <line id="_70429856" class="fil1" x1="82.3568" y1="57.6276" x2="85.0153" y2= "47.7138" />
   <line id="_70428768" class="fil1" x1="53.9999" y1="47.7138" x2="85.043" y2= "47.7138" />
   <line id="_70427816" class="fil1" x1="51.9784" y1="52.8922" x2="61.9199" y2= "26.6677" />
   <line id="_70426864" class="fil1" x1="85.0153" y1="47.7138" x2="81.4707" y2= "35.28" />
   <line id="_70425912" class="fil1" x1="61.9199" y1="26.6677" x2="81.4707" y2= "35.3077" />
   <line id="_70424960" class="fil1" x1="32.4553" y1="55.8553" x2="32.4553" y2= "53.3353" />
   <line id="_70424008" class="fil1" x1="42.9784" y1="48.9876" x2="47.5753" y2= "36.1384" />
   <line id="_70423056" class="fil1" x1="42.9784" y1="48.9876" x2="52.0061" y2= "52.8922" />
   <line id="_70422072" class="fil1" x1="32.4553" y1="53.3353" x2="42.9784" y2= "48.9876" />
   <line id="_70421120" class="fil1" x1="32.4277" y1="55.8276" x2="39.24" y2= "60.4245" />
   <line id="_70420168" class="fil1" x1="59.5661" y1="28.163" x2="53.5846" y2= "44.3076" />
   <line id="_70419080" class="fil1" x1="49.0984" y1="36.3323" x2="47.0492" y2= "42.2584" />
   <line id="_70418096" class="fil1" x1="49.763" y1="34.3661" x2="52.0892" y2= "28.163" />
   <line id="_70417144" class="fil1" x1="52.1169" y1="28.163" x2="59.5661" y2= "28.163" />
   <line id="_70416192" class="fil1" x1="50.9815" y1="26.6677" x2="48.2123" y2= "34.3107" />
   <path id="_72105968" class="fil2" d="M42.5445 48.5769l4.51526 -12.6324 1.13059 0 -4.52616 12.7462 8.00994 3.46448 9.45473 -24.9405 -9.766 0 -2.69335 7.39929 -1.1646 0 2.94836 -8.08996c0.0631253,-0.232332 0.275942,-0.4035 0.528225,-0.4035l10.9384 0c0.0865656,0 0.168225,0.0204966 0.241054,0.0562567l19.3695 8.55986c0.214125,0.0237674 0.403282,0.173676 0.465863,0.393688l3.50013 12.2779c0.0589824,0.0872198 0.0935432,0.19232 0.0935432,0.305487 0,0.110442 -0.0330345,0.21347 -0.0894003,0.299491l-2.61594 9.75542c-0.0348879,0.13083 -0.114803,0.237456 -0.218376,0.308649 -0.0923439,0.132683 -0.242144,0.223392 -0.415929,0.23364l-42.9507 2.68615c-0.154379,0.00904905 -0.297419,-0.0473167 -0.402628,-0.144676l-6.6794 -4.50719c-0.0538582,-0.026275 -0.103028,-0.0609448 -0.145221,-0.102592 -0.171605,-0.146529 -0.233095,-0.382677 -0.162011,-0.59135l0 -2.30391c-0.0013083,-0.0596365 0.00730466,-0.11851 0.0246396,-0.174331l0.00370684 -0.0114476 0.000545124 -0.0013083c0.048734,-0.144131 0.156887,-0.267001 0.308758,-0.329364l10.2964 -4.25403zm-9.54424 5.12318l0 1.85462 5.72249 3.86144 0 -1.3071c-0.0940883,-0.274742 0.0433918,-0.577722 0.316281,-0.685438l11.5271 -4.56072 -7.59183 -3.28361 -9.97402 4.12081zm6.8123 4.59365l0 1.57748 11.0559 -0.691435 0.512852 -5.46323 -11.5687 4.57718zm12.1572 0.81714l29.9254 -1.87152 2.40759 -8.97851 -29.9851 0 -1.76773 4.66331 -0.00109025 0.0172259 -0.579139 6.16949zm2.7628 -11.9442l29.5583 0 -3.26671 -11.4589 -18.7984 -8.30746 -7.49327 19.7664z"/>
   <line id="_70415256" class="fil1" x1="53.5569" y1="44.2799" x2="47.0492" y2= "42.2861" />
   <path id="_70803440" class="fil2" d="M60.0683 28.3801l-5.97085 16.1156c-0.103792,0.283137 -0.417783,0.428576 -0.70092,0.324785 -0.0373955,-0.0137371 -0.0721744,-0.0312901 -0.104555,-0.0517867l-6.40095 -1.96114c-0.287934,-0.0873288 -0.450599,-0.391726 -0.36327,-0.67966 0.0251847,-0.0831858 0.0690126,-0.156123 0.124833,-0.215433l-0.0426287 -0.0147183 2.04149 -5.95318 1.15239 0 -2.05348 5.98644 5.50716 1.68727 5.52341 -14.9081 -6.31427 0 -2.20666 5.90391 -1.17452 0 2.49296 -6.64124 0.0225681 0.0083949c0.0749,-0.212816 0.277468,-0.365233 0.515905,-0.365233l7.44922 0c0.302107,0 0.547086,0.244979 0.547086,0.547086 0,0.0771895 -0.0161357,0.150563 -0.0449182,0.217068z"/>
   <path id="_70413712" class="fil0" d="M46.6892 35.3907c-0.138461,-0.0276923 -0.110769,-0.332307 0.304615,-0.415384 0.36,-0.0830768 2.02154,-0.0276923 2.79692,0.0276923 0.747691,0.0830768 0.443076,0.276923 0.221538,0.332307 -0.775384,0.24923 -2.57538,0.24923 -3.32307,0.0553845z"/>
   <polygon id="_70408384" class="fil0" points="48.5169,49.6522 49.4861,46.9661 50.2892,46.9661 49.403,49.2922 51.4522,49.9569 51.1476,50.6492 "/>
  </g>
 </g>
</svg>
