<?xml version="1.0" encoding="UTF-8"?>
<!DOCTYPE svg PUBLIC "-//W3C//DTD SVG 1.1//EN" "http://www.w3.org/Graphics/SVG/1.1/DTD/svg11.dtd">
<!-- Creator: CorelDRAW -->
<svg xmlns="http://www.w3.org/2000/svg" xml:space="preserve" width="63.2903mm" height="19.3164mm" style="shape-rendering:geometricPrecision; text-rendering:geometricPrecision; image-rendering:optimizeQuality; fill-rule:evenodd; clip-rule:evenodd"
viewBox="0 0 98.9507 30.2001"
 xmlns:xlink="http://www.w3.org/1999/xlink">
 <defs>
  <style type="text/css">
   <![CDATA[
    .fil1 {fill:none}
    .fil0 {fill:#1F1A17}
    .fil2 {fill:#1F1A17;fill-rule:nonzero}
   ]]>
  </style>
 </defs>
 <g id="Layer_x0020_1">
  <metadata id="CorelCorpID_0Corel-Layer"/>
  <g id="_72756480">
   <path id="_70549888" class="fil0" d="M37.3583 12.3798c7.26719,0.635383 7.38632,12.7077 0,13.2239l0 -1.0325c0.675094,-0.27798 0.913363,-0.119134 0.913363,-1.46932l0 -8.61738c0,-0.516248 -0.397114,-0.794228 -0.913363,-1.0325l0 -1.07221zm-0.675094 0l0 1.07221c-0.635383,0.119134 -0.913363,0.913363 -0.913363,1.15163l0 8.37911c0,0.675094 0,1.31048 0.913363,1.58846l0 1.0325c-7.22748,-0.794228 -6.83036,-12.8268 0,-13.2239z"/>
   <path id="_70547888" class="fil0" d="M49.232 12.6578c7.42603,0.238268 7.42603,12.7077 0,12.7077l0 -1.19134c0.55596,-0.158846 1.07221,-0.158846 1.07221,-1.19134l0 -7.94228c0,-0.953074 -0.397114,-1.07221 -1.07221,-1.23105l0 -1.15163zm-0.635383 0l0 12.7077 -4.24912 0c-0.913363,0 -0.913363,-0.119134 -0.913363,-0.55596 0,-0.635383 0.913363,-0.516248 0.913363,-1.0325l0 -9.29247c0,-1.0325 -0.913363,-0.516248 -0.913363,-1.31048 0,-0.27798 0.27798,-0.516248 0.913363,-0.516248l4.24912 0z"/>
   <path id="_70546488" class="fil0" d="M61.5028 18.3365c0.953074,-0.397114 1.07221,-0.913363 1.23105,-1.58846 0.119134,-0.675094 1.0325,-0.675094 1.0325,0.119134l0 4.24912c0,0.397114 -0.794228,0.516248 -0.913363,0 -0.119134,-0.516248 -0.55596,-1.58846 -1.35019,-1.70759l0 -1.07221zm0 -5.5596l3.85201 0 0 3.41518c0,0.55596 -0.953074,0.55596 -1.07221,0 -0.238268,-1.0325 -1.0325,-2.22384 -2.7798,-2.38268l0 -1.0325zm0 11.5163c1.46932,0 2.66066,-1.46932 2.89893,-2.38268 0.158846,-0.794228 1.07221,-0.794228 1.07221,-0.119134l0 3.57403 -3.97114 0 0 -1.07221zm-0.635383 -11.5163l0 12.5885 -3.97114 0c-0.794228,0 -1.07221,-0.119134 -1.07221,-0.397114 0,-0.794228 0.953074,-0.516248 0.953074,-1.07221l0 -9.01449c0,-1.31048 -0.953074,-0.635383 -0.953074,-1.58846 0,-0.27798 0.27798,-0.516248 0.794228,-0.516248l4.24912 0z"/>
   <path id="_70544328" class="fil0" d="M72.622 18.3365c0.913363,-0.397114 1.07221,-0.913363 1.19134,-1.58846 0.119134,-0.675094 1.0325,-0.675094 1.0325,0.119134l0 4.24912c0,0.397114 -0.794228,0.516248 -0.913363,0 -0.119134,-0.516248 -0.516248,-1.58846 -1.31048,-1.70759l0 -1.07221zm0 -5.5596l3.8123 0 0 3.41518c0,0.55596 -0.913363,0.55596 -1.0325,0 -0.27798,-1.0325 -1.07221,-2.22384 -2.7798,-2.38268l0 -1.0325zm0 11.5163c1.42961,0 2.62095,-1.46932 2.89893,-2.38268 0.119134,-0.794228 1.07221,-0.794228 1.07221,-0.119134l0 3.57403 -3.97114 0 0 -1.07221zm-0.675094 -11.5163l0 12.5885 -3.97114 0c-0.794228,0 -1.0325,-0.119134 -1.0325,-0.397114 0,-0.794228 0.913363,-0.516248 0.913363,-1.07221l0 -9.01449c0,-1.31048 -0.913363,-0.635383 -0.913363,-1.58846 0,-0.27798 0.238268,-0.516248 0.794228,-0.516248l4.20941 0z"/>
   <path id="_70542512" class="fil0" d="M86.3622 23.777l0 -11.0001 4.09028 0c0.635383,0 1.07221,0.119134 1.07221,0.516248 0,0.516248 -0.953074,0.397114 -0.953074,1.07221l0 9.29247c0,0.913363 0.953074,0.357403 0.953074,1.15163 0,0.55596 -0.27798,0.55596 -1.07221,0.55596l-4.36826 0c-0.27798,0 -0.675094,-0.119134 -0.675094,-0.55596 0,-0.635383 0.953074,-0.357403 0.953074,-1.0325zm-6.87007 -6.90979l1.0325 3.17691 0 2.66066c0,0.953074 0.55596,1.31048 0.953074,1.58846 0.794228,0.516248 0.119134,1.07221 -0.675094,1.07221l-1.98557 0c-0.397114,0 -1.31048,-0.55596 -0.119134,-1.19134 0.516248,-0.27798 0.794228,-0.953074 0.794228,-1.7473l0 -5.5596zm5.28162 1.07221l0.913363 -3.05778 0 3.33576 -2.1047 7.14805 -0.675094 0 -3.57403 -10.7618c-0.397114,-1.31048 -1.31048,-0.516248 -1.31048,-1.31048 0,-0.516248 0.397114,-0.516248 1.0325,-0.516248l4.01085 0 1.70759 5.16248z"/>
   <path id="_70541720" class="fil0" d="M93.7485 23.777l0 -9.29247c0,-1.0325 -0.913363,-0.675094 -0.913363,-1.31048 0,-0.516248 0.397114,-0.516248 1.0325,-0.516248l3.97114 0c0.953074,0 1.07221,0.119134 1.07221,0.516248 0,0.516248 -0.913363,0.397114 -0.913363,1.07221l0 9.41161c0,0.913363 0.913363,0.357403 0.913363,1.15163 0,0.55596 -0.27798,0.55596 -1.07221,0.55596l-4.36826 0c-0.238268,0 -0.635383,-0.119134 -0.635383,-0.55596 0,-0.635383 0.913363,-0.357403 0.913363,-1.0325z"/>
   <path id="_70530408" class="fil0" d="M16.3112 23.0225l0 -15.7257 5.00364 0c0.794228,0 1.31048,0.198557 1.31048,0.754517 0,0.794228 -1.15163,0.55596 -1.15163,1.50903l0 13.2636c0,1.35019 1.15163,0.55596 1.15163,1.70759 0,0.754517 -0.317691,0.754517 -1.31048,0.754517l-5.32133 0c-0.317691,0 -0.83394,-0.198557 -0.83394,-0.754517 0,-0.953074 1.15163,-0.55596 1.15163,-1.50903zm-8.37911 -9.84843l1.27077 4.5271 0 3.8123c0,1.31048 0.635383,1.86644 1.11192,2.26355 0.992785,0.754517 0.198557,1.50903 -0.794228,1.50903l-2.4224 0c-0.476537,0 -1.58846,-0.754517 -0.158846,-1.70759 0.635383,-0.357403 0.992785,-1.31048 0.992785,-2.46211l0 -7.94228zm6.43325 1.50903l1.15163 -4.32854 0 4.72566 -2.62095 10.2058 -0.794228 0 -4.36826 -15.3286c-0.476537,-1.90615 -1.58846,-0.754517 -1.58846,-1.90615 0,-0.754517 0.476537,-0.754517 1.27077,-0.754517l4.84479 0 2.1047 7.38632z"/>
   <path id="_70529480" class="fil1" d="M15.0405 29.4954c-7.86286,0 -14.3358,-6.51267 -14.3358,-14.4152 0,-7.90257 6.47296,-14.3755 14.4152,-14.3755 7.90257,0 14.3755,6.47296 14.3755,14.3755 0,3.41518 -1.31048,6.83036 -3.4946,9.41161"/>
   <line id="_70528688" class="fil1" x1="21.7914" y1="24.5712" x2="25.7228" y2= "24.5712" />
   <path id="_70531440" class="fil1" d="M15.0802 29.4954c83.8705,0 83.8705,0 83.8705,0"/>
   <path id="_71743808" class="fil2" d="M15.0802 28.7908l83.8705 0 0 1.40929 -83.8705 0 0 -0.00125075 -0.0397114 0.00125075 -0.00109441 0 0 -0.00281419c-4.12639,-0.000312688 -7.88662,-1.70806 -10.6139,-4.45096 -2.72586,-2.74165 -4.42204,-6.52002 -4.42266,-10.6638l-0.00281419 0 0 -0.00234516 0 -0.00109441 0.00281419 0c0.000312688,-4.14562 1.69774,-7.9157 4.43595,-10.6486 2.73634,-2.73102 6.5147,-4.42704 10.6788,-4.42767l0 -0.00281419 0.00234516 0 0.00109441 0 0 0.00281419c4.14703,0.000312688 7.91727,1.6968 10.6486,4.42829 2.73086,2.73118 4.42704,6.50048 4.42767,10.6467l0.00281419 0 0 0.00234516 0 0.00250151 -0.00281419 0c-0.000312688,1.79249 -0.343644,3.58341 -0.972773,5.26207 -0.10991,0.293145 -0.219664,0.564871 -0.328635,0.812677l-0.000938065 -0.000469032c-0.603957,1.37427 -1.40116,2.65894 -2.35736,3.789 -0.126326,0.149152 -0.301901,0.232796 -0.482478,0.246867 -0.0991222,0.053157 -0.211846,0.0830187 -0.332231,0.0830187l-3.93143 0c-0.389141,0 -0.704643,-0.315502 -0.704643,-0.704643 0,-0.389141 0.315502,-0.704643 0.704643,-0.704643l3.81495 0c0.807518,-0.986844 1.48386,-2.0947 2.00152,-3.27338l0 -0.00265785c0.115069,-0.261876 0.215442,-0.50718 0.301119,-0.735756 0.572063,-1.52654 0.884439,-3.1508 0.884595,-4.77209l-0.00281419 0 0 -0.00250151 0 -0.00234516 0.00281419 0c-0.000469032,-3.75367 -1.54062,-7.17057 -4.02023,-9.6505 -2.47993,-2.48009 -5.89793,-4.0207 -9.65238,-4.02086l0 0.00281419 -0.00109441 0 -0.00234516 0 0 -0.00281419c-3.7754,0.000469032 -7.2034,1.54062 -9.68787,4.02023 -2.48353,2.47852 -4.02305,5.89621 -4.0232,9.65238l0.00281419 0 0 0.00109441 0 0.00234516 -0.00281419 0c0.000469032,3.75617 1.54046,7.18386 4.01523,9.67286 2.4743,2.48869 5.88182,4.03806 9.61767,4.03821l0 -0.00281419 0.00109441 0c0.0132893,0 0.0265785,0 0.0397114,0.000781721l0 -0.000781721z"/>
  </g>
 </g>
</svg>
